# xmcd
#
# Track frame offsets: 
#        182
#        13477
#        27805
#        43437
#        59240
#        74535
#        88090
#        104237
#        116885
#        133532
#        151490
#        170725
#
# Disc length: 2486 seconds
#
# Revision: 1
# Processed by: cddbd v1.5.1PL2 Copyright (c) Steve Scherf et al.
# Submitted via: ExactAudioCopy v0.95b2
#
DISCID=c109b40c
DTITLE=Various Artist - The Spirit Of America Vol. 3
DYEAR=1993
DGENRE=Country
TTITLE0=Desert Rose Band - Love Reunited
TTITLE1=Vern Gosdin - Love Will Keep Your Hand On The Wheel
TTITLE2=Colin Raye - What They Don't Know
TTITLE3=Doug Stone - A Jukebox With A Country Song
TTITLE4=Mike Reid - The Hurtin' Side
TTITLE5=Sawyer Brown - Travelin' Shoes
TTITLE6=Hal Ketchum - Old Soldiers
TTITLE7=Wynonna Judd - When I Reach The Place I'm Goin'
TTITLE8=Shelby Lynne - Stop Me
TTITLE9=Rodney Crowell - What Kind Of Love
TTITLE10=Lyle Lovett - This Old Porch
TTITLE11=Rick Vincent - Outlaw Heart
EXTD=
EXTT0=
EXTT1=
EXTT2=
EXTT3=
EXTT4=
EXTT5=
EXTT6=
EXTT7=
EXTT8=
EXTT9=
EXTT10=
EXTT11=
PLAYORDER=
